<svg data-v-423bf9ae="" xmlns="http://www.w3.org/2000/svg" viewBox="0 0 415.607541642099 60" class="font"><!----><!----><!----><g data-v-423bf9ae="" id="2c1ca666-f234-4c2b-aa4f-79e33ec40a37" fill="black" transform="matrix(4.528301886792453,0,0,4.528301886792453,-5.071692095612576,-13.901886251737487)"><path d="M6.27 3.99C5.75 3.93 5.36 3.92 4.76 3.92L1.12 3.92L1.12 13.58L3.64 13.58L3.64 10.19L4.76 10.19C5.36 10.19 5.75 10.18 6.27 10.12C7.67 9.95 8.95 8.96 8.95 7.06C8.95 5.15 7.67 4.16 6.27 3.99ZM5.29 8.22C5.11 8.23 4.89 8.23 4.62 8.23L3.64 8.23L3.64 5.88L4.62 5.88C4.89 5.88 5.11 5.88 5.29 5.89C5.94 5.95 6.31 6.33 6.31 7.06C6.31 7.78 5.94 8.16 5.29 8.22ZM14.15 13.58L16.62 13.58C16.51 12.75 16.48 12.25 16.48 11.69L16.48 9.59C16.48 9.13 16.46 8.69 16.44 8.32C16.32 6.96 15.51 5.91 13.15 5.91C11.26 5.91 9.70 6.90 9.69 8.65L12.07 8.64C12.11 7.99 12.45 7.62 13.03 7.62C13.58 7.62 13.89 7.95 13.93 8.33C13.96 8.57 13.96 8.72 13.96 8.88L13.96 8.99L13.48 8.99C10.95 8.99 9.44 9.97 9.44 11.56C9.44 13.01 10.60 13.78 11.83 13.78C12.52 13.78 13.15 13.61 13.68 13.27L13.99 12.49ZM12.87 12.07C12.36 12.07 12.01 11.82 12.01 11.37C12.01 10.63 12.82 10.33 13.96 10.42L13.96 10.91C13.96 11.69 13.37 12.07 12.87 12.07ZM22.97 5.91C22.22 5.91 21.49 6.06 21.07 6.37L20.51 7.20L20.51 6.10L17.99 6.10L17.99 16.32L20.51 16.32L20.51 12.61L21 13.41C21.38 13.64 22.11 13.78 22.72 13.78C24.64 13.78 26.26 12.33 26.26 9.67C26.26 7.46 25.00 5.91 22.97 5.91ZM22.04 12.07C21.28 12.07 20.51 11.56 20.51 10.07L20.51 9.74C20.51 8.18 21.18 7.62 22.11 7.62C22.99 7.62 23.69 8.40 23.69 9.80C23.69 11.33 23.02 12.07 22.04 12.07ZM34.68 9.74C34.68 7.81 33.42 5.91 30.93 5.91C28.43 5.91 26.94 7.69 26.94 9.87C26.94 12.50 28.64 13.78 30.79 13.78C32.70 13.78 34.10 12.82 34.54 11.13L32.06 11.13C31.96 11.70 31.53 12.07 30.81 12.07C30.10 12.07 29.55 11.72 29.43 10.47L34.64 10.47C34.66 10.22 34.68 9.97 34.68 9.74ZM30.80 7.62C31.47 7.62 31.91 8.05 32.05 8.93L29.51 8.93C29.68 8.01 30.14 7.62 30.80 7.62ZM40.29 5.91C39.82 5.91 39.23 6.12 38.82 6.57L38.29 7.62L38.29 6.10L35.77 6.10L35.77 13.58L38.29 13.58L38.29 10.84C38.29 8.58 38.98 7.88 40.87 8.01L40.87 5.95C40.68 5.92 40.53 5.91 40.29 5.91ZM44.67 7.73L46.33 7.73L46.33 6.16L44.67 6.16L44.67 4.23L42.15 4.23L42.15 6.16L40.96 6.16L40.96 7.73L42.15 7.73L42.15 10.85C42.15 11.27 42.15 11.62 42.18 12.05C42.27 13.20 42.83 13.78 44.69 13.78C45.22 13.78 45.68 13.73 46.17 13.65L46.17 12.08C44.98 12.14 44.74 11.97 44.69 11.21C44.67 11.02 44.67 10.74 44.67 10.49ZM51.77 5.91C51.30 5.91 50.71 6.12 50.30 6.57L49.77 7.62L49.77 6.10L47.25 6.10L47.25 13.58L49.77 13.58L49.77 10.84C49.77 8.58 50.46 7.88 52.35 8.01L52.35 5.95C52.16 5.92 52.01 5.91 51.77 5.91ZM56.73 5.91C54.28 5.91 52.71 7.43 52.71 9.84C52.71 12.24 54.28 13.78 56.73 13.78C59.18 13.78 60.75 12.24 60.75 9.84C60.75 7.43 59.18 5.91 56.73 5.91ZM56.73 12.07C55.83 12.07 55.29 11.33 55.29 9.84C55.29 8.34 55.83 7.62 56.73 7.62C57.62 7.62 58.17 8.34 58.17 9.84C58.17 11.33 57.62 12.07 56.73 12.07ZM69.71 6.10L66.95 6.10L65.42 11.58L63.88 6.10L61.08 6.10L64.04 13.58L66.75 13.58ZM77.31 9.74C77.31 7.81 76.05 5.91 73.56 5.91C71.06 5.91 69.57 7.69 69.57 9.87C69.57 12.50 71.27 13.78 73.42 13.78C75.33 13.78 76.73 12.82 77.17 11.13L74.69 11.13C74.59 11.70 74.16 12.07 73.44 12.07C72.73 12.07 72.18 11.72 72.06 10.47L77.27 10.47C77.29 10.22 77.31 9.97 77.31 9.74ZM73.43 7.62C74.10 7.62 74.54 8.05 74.68 8.93L72.14 8.93C72.31 8.01 72.77 7.62 73.43 7.62ZM79.60 10.98C78.78 10.98 78.20 11.55 78.20 12.38C78.20 13.20 78.78 13.78 79.60 13.78C80.43 13.78 81.00 13.20 81.00 12.38C81.00 11.55 80.43 10.98 79.60 10.98ZM86.51 13.58L88.97 13.58C88.86 12.75 88.83 12.25 88.83 11.69L88.83 9.59C88.83 9.13 88.82 8.69 88.79 8.32C88.68 6.96 87.86 5.91 85.50 5.91C83.61 5.91 82.05 6.90 82.04 8.65L84.42 8.64C84.46 7.99 84.80 7.62 85.39 7.62C85.93 7.62 86.24 7.95 86.28 8.33C86.31 8.57 86.31 8.72 86.31 8.88L86.31 8.99L85.83 8.99C83.30 8.99 81.79 9.97 81.79 11.56C81.79 13.01 82.95 13.78 84.18 13.78C84.87 13.78 85.50 13.61 86.03 13.27L86.34 12.49ZM85.22 12.07C84.71 12.07 84.36 11.82 84.36 11.37C84.36 10.63 85.18 10.33 86.31 10.42L86.31 10.91C86.31 11.69 85.72 12.07 85.22 12.07ZM91.60 3.07C90.82 3.07 90.30 3.54 90.30 4.30C90.30 5.05 90.82 5.53 91.60 5.53C92.39 5.53 92.90 5.05 92.90 4.30C92.90 3.54 92.39 3.07 91.60 3.07ZM92.86 13.58L92.86 6.10L90.34 6.10L90.34 13.58Z"></path></g><!----><!----></svg>